HIERARCHY
ROOT Hips
{
  OFFSET 43.0842 91.1655 101.099
  CHANNELS 6 Xposition Yposition Zposition Zrotation Xrotation Yrotation
  JOINT LeftUpLeg
  {
    OFFSET 8.64259 1.95398 -2.38835
    CHANNELS 3 Zrotation Xrotation Yrotation
    JOINT LeftLeg
    {
      OFFSET 43.7702 0 0
      CHANNELS 3 Zrotation Xrotation Yrotation
      JOINT LeftFoot
      {
        OFFSET 40.6238 0 0
        CHANNELS 3 Zrotation Xrotation Yrotation
        JOINT LeftToeBase
        {
          OFFSET 12.7242 0 0
          CHANNELS 3 Zrotation Xrotation Yrotation
          End Site
          {
            OFFSET 0 0 0
          }
        }
      }
    }
  }
  JOINT RightUpLeg
  {
    OFFSET -8.2249 1.95398 -2.59336
    CHANNELS 3 Zrotation Xrotation Yrotation
    JOINT RightLeg
    {
      OFFSET 43.5653 0 0
      CHANNELS 3 Zrotation Xrotation Yrotation
      JOINT RightFoot
      {
        OFFSET 40.6238 0 0
        CHANNELS 3 Zrotation Xrotation Yrotation
        JOINT RightToeBase
        {
          OFFSET 12.7242 0 0
          CHANNELS 3 Zrotation Xrotation Yrotation
          End Site
          {
            OFFSET 0 0 0
          }
        }
      }
    }
  }
  JOINT Spine
  {
    OFFSET 0.165834 0.87714 6.61349
    CHANNELS 3 Zrotation Xrotation Yrotation
    JOINT Spine1
    {
      OFFSET 7.38963 1.71661e-005 0
      CHANNELS 3 Zrotation Xrotation Yrotation
      JOINT Spine2
      {
        OFFSET 11.9445 1.14441e-005 0
        CHANNELS 3 Zrotation Xrotation Yrotation
        JOINT Spine3
        {
          OFFSET 14.7254 4.19617e-005 0
          CHANNELS 3 Zrotation Xrotation Yrotation
          JOINT Spine4
          {
            OFFSET 10.9679 0 0
            CHANNELS 3 Zrotation Xrotation Yrotation
            JOINT RightShoulder
            {
              OFFSET 2.46616 -1.6653 3.69651
              CHANNELS 3 Zrotation Xrotation Yrotation
              JOINT RightArm
              {
                OFFSET 13.0012 0 0
                CHANNELS 3 Zrotation Xrotation Yrotation
                JOINT RightForeArm
                {
                  OFFSET 28.7848 1.52588e-005 0
                  CHANNELS 3 Zrotation Xrotation Yrotation
                  JOINT RightHand
                  {
                    OFFSET 26.5688 1.52588e-005 0
                    CHANNELS 3 Zrotation Xrotation Yrotation
                    End Site
                    {
                      OFFSET 0 0 0
                    }
                  }
                }
              }
            }
            JOINT LeftShoulder
            {
              OFFSET 2.38034 -1.29275 -3.7523
              CHANNELS 3 Zrotation Xrotation Yrotation
              JOINT LeftArm
              {
                OFFSET 16.3182 6.10351e-005 0
                CHANNELS 3 Zrotation Xrotation Yrotation
                JOINT LeftForeArm
                {
                  OFFSET 27.0901 0 0
                  CHANNELS 3 Zrotation Xrotation Yrotation
                  JOINT LeftHand
                  {
                    OFFSET 24.5451 1.52588e-005 0
                    CHANNELS 3 Zrotation Xrotation Yrotation
                    End Site
                    {
                      OFFSET 0 0 0
                    }
                  }
                }
              }
            }
            JOINT Neck
            {
              OFFSET 5.0226 -0.0266342 0
              CHANNELS 3 Zrotation Xrotation Yrotation
              JOINT Head
              {
                OFFSET 6.69364 2.86102e-005 0
                CHANNELS 3 Zrotation Xrotation Yrotation
                End Site
                {
                  OFFSET 0 0 0
                }
              }
            }
          }
        }
      }
    }
  }
}
MOTION
Frames:	9
Frame Time:	0.0333333
110.308 91.2825 -55.048 -99.3584 -60.4356 -101.073 -171.74 19.2237 97.9463 -28.6224 15.8799 -4.5792 59.5109 -4.11521 10.4167 29.5922 1.23287 -0.30723 174.326 5.72821 80.9347 -32.2401 -14.59 -5.43309 73.5823 -12.9891 -8.5989 38.6527 -4.5889 -3.38806 -0.0417077 7.47374 -89.7282 11.926 0.0451035 0.537185 0.254921 0.0687044 0.534678 -22.2794 -0.11842 0.525901 -2.26671 -0.118423 0.525906 94.5713 -44.2311 -94.6964 7.41427 -32.5826 -62.081 -9.44247 -3.02029 -107.682 -10.3675 -1.35542 7.21722 -116.874 -62.6628 47.071 11.9058 -50.5541 -24.9199 3.94315 14.2941 -73.5735 16.6626 2.1715 -5.27647 -22.2528 13.3257 15.2 -1.8428 14.6116 11.1195 
110.317 91.2697 -55.0052 -99.3 -60.342 -101.018 -171.696 19.2208 97.9593 -28.6995 15.8092 -4.60682 59.6178 -3.95965 10.3707 29.5129 1.10205 -0.258277 174.381 5.70178 80.96 -32.2395 -14.5699 -5.47924 73.1222 -12.5302 -8.57987 39.3884 -5.07908 -3.11049 -0.0215443 7.46982 -89.7305 11.9338 0.084293 0.528394 0.262701 0.10748 0.52417 -22.2716 -0.0784118 0.529299 -2.25894 -0.0784002 0.529304 94.6171 -44.2242 -94.6211 7.51019 -32.5551 -62.0086 -9.41959 -3.04752 -107.747 -10.2229 -1.30496 7.26716 -116.836 -62.6503 47.1125 11.7913 -50.2575 -25.0746 3.62471 13.9255 -73.4287 16.577 2.16603 -5.33352 -22.2438 13.2807 15.1298 -1.83678 14.5624 11.1507 
110.289 91.2652 -54.9228 -99.2895 -60.2276 -100.942 -171.632 19.2196 98.0453 -28.8506 15.5989 -4.62088 59.7057 -3.8657 10.2742 29.5666 1.2865 -0.451076 174.415 5.50828 81.0711 -32.1393 -14.577 -5.51309 71.8749 -11.2646 -8.45856 41.2523 -6.29242 -2.39775 -0.00970036 7.4649 -89.7349 11.9436 0.105793 0.517204 0.272512 0.128459 0.51204 -22.2618 -0.0545367 0.525094 -2.24918 -0.0545397 0.525086 94.6176 -44.2635 -94.6141 7.50417 -32.5418 -62.0357 -9.38395 -3.10743 -107.722 -10.2445 -1.31564 7.18309 -116.628 -62.5951 47.3396 11.6665 -50.0255 -25.1299 3.56221 13.7555 -73.3005 16.5774 2.17773 -5.5833 -22.2803 13.2828 15.1361 -1.75031 14.5766 11.0817 
110.263 91.2561 -54.8448 -99.2467 -60.2286 -100.825 -171.576 19.3126 98.1094 -29.0413 15.5608 -4.6393 59.7338 -3.83026 10.1193 29.7624 1.34186 -0.124249 174.419 5.30615 81.2278 -31.9894 -14.344 -5.51052 70.0221 -9.33465 -8.13608 44.0375 -8.04659 -1.2217 -0.00474619 7.45618 -89.7322 11.9609 0.116857 0.521471 0.289886 0.139683 0.515817 -22.2444 -0.0452628 0.532493 -2.23179 -0.0452732 0.532481 94.5844 -44.472 -94.6341 7.31925 -32.5499 -62.0021 -9.49928 -3.05221 -107.749 -10.5195 -1.40811 7.1724 -116.372 -62.477 47.5965 11.5557 -49.877 -25.2057 4.14569 14.0324 -73.27 16.9998 2.22023 -5.62542 -22.1617 13.3313 14.8152 -1.84353 14.5835 11.1928 
110.245 91.2403 -54.7636 -99.3523 -60.203 -100.985 -171.457 19.2675 98.0713 -29.1481 15.6096 -4.71464 59.7512 -3.76222 10.1451 29.8789 1.51735 -0.16781 174.332 5.20654 81.2077 -32.1056 -14.1024 -5.54312 67.7394 -6.92089 -7.53072 47.5233 -10.1181 0.340409 -0.0100846 7.46059 -89.7356 11.9522 0.104524 0.516133 0.28115 0.127149 0.511027 -22.2532 -0.055429 0.523691 -2.24054 -0.0554048 0.523695 94.5422 -44.3117 -94.7309 7.34619 -32.6025 -62.0007 -9.64335 -2.95822 -107.716 -10.7365 -1.47511 7.31699 -116.547 -62.5584 47.4207 11.8796 -49.7732 -24.936 4.67375 14.0217 -73.4801 17.082 2.21366 -5.31383 -22.1413 13.3725 15.1686 -1.81667 14.6396 10.9743 
110.204 91.2283 -54.6608 -99.4146 -60.1387 -101.04 -171.419 19.1943 98.0796 -29.2378 15.4863 -4.68562 59.8241 -3.63744 10.4274 29.7746 1.76167 -0.808193 174.261 5.11271 81.2388 -32.154 -13.8393 -5.54716 65.0944 -4.18533 -6.7492 51.4448 -12.284 2.28059 0.000566797 7.46548 -89.7397 11.9423 0.123754 0.505704 0.271305 0.145903 0.49976 -22.2631 -0.0339462 0.519517 -2.25041 -0.0339424 0.51952 94.5664 -44.2542 -94.7004 7.20921 -32.6649 -62.0564 -9.77715 -2.84768 -107.77 -10.9325 -1.54067 7.32002 -116.193 -62.4328 47.7948 12.1206 -49.4312 -24.8633 4.64867 13.7975 -73.233 17.1186 2.2087 -5.10716 -22.0385 13.4009 15.1216 -1.89558 14.646 11.1279 
110.142 91.1646 -54.6551 -98.8906 -60.2509 -100.308 -171.601 19.6946 98.2764 -29.6883 15.5837 -4.49866 59.9724 -3.41871 10.443 29.8305 1.64351 -0.486403 174.478 5.33195 81.6183 -32.264 -13.6562 -5.47214 62.2523 -1.33691 -6.02698 55.4162 -14.2828 4.20968 0.0010585 7.43172 -89.7687 12.01 0.111333 0.449315 0.338955 0.130992 0.44398 -22.1956 -0.0288427 0.462006 -2.18293 -0.0288735 0.461995 94.6574 -44.2796 -94.545 7.01299 -32.8194 -62.1341 -10.0355 -2.76185 -107.726 -11.0768 -1.59805 7.061 -115.47 -62.1369 48.5422 13.4382 -47.8126 -23.8988 4.51009 12.3711 -72.5121 17.444 2.24631 -5.24341 -21.7846 13.4461 15.054 -2.14235 14.6277 11.1833 
110.064 91.0733 -54.6724 -97.8525 -60.8456 -99.0611 -172.102 20.7373 98.4895 -30.3454 16.6719 -4.20589 60.048 -3.36862 10.4313 29.7813 1.36377 -0.122332 174.671 5.91341 82.0827 -32.45 -13.2212 -5.18264 59.3219 1.57023 -5.42304 59.5112 -16.1456 6.33976 -0.0479478 7.33179 -89.8254 12.2102 -0.0125592 0.350148 0.539205 0.00285658 0.350359 -21.9956 -0.117209 0.330189 -1.98296 -0.117228 0.330182 94.7525 -44.2224 -94.3965 6.83071 -33.363 -62.0621 -10.2733 -2.44072 -107.502 -11.2895 -1.67683 6.78521 -114.402 -61.6519 49.636 16.328 -42.6928 -20.2983 3.16299 7.39017 -70.0156 18.6146 2.37928 -5.94107 -22.2402 13.3541 15.8808 -1.95037 14.6592 10.6152 
109.947 91.1285 -54.4839 -96.9658 -61.7748 -98.1992 -172.698 21.3205 98.4084 -30.4106 17.7709 -3.86481 59.9141 -3.50563 10.0415 29.7177 1.2859 -0.127907 174.453 6.16189 82.195 -31.9496 -12.2696 -4.72481 56.3958 4.4583 -4.75184 63.6469 -17.819 9.01632 -0.124281 7.21499 -89.8951 12.4441 -0.196976 0.232409 0.773106 -0.186568 0.240849 -21.7621 -0.257718 0.162465 -1.74941 -0.257727 0.162465 94.8023 -43.5851 -94.4189 6.91248 -34.5199 -62.0193 -11.3677 -2.09675 -107.264 -12.9271 -2.21683 7.1322 -112.169 -60.8825 52.0764 17.9917 -32.9338 -14.759 3.01314 -1.90522 -65.0961 17.7868 2.3109 -6.10235 -22.7783 13.29 18.2502 -1.75178 14.8073 9.07231 
